<svg id="svg" version="1.1" xmlns="http://www.w3.org/2000/svg" xmlns:xlink="http://www.w3.org/1999/xlink" width="400" height="400" viewBox="0, 0, 400,400"><g id="svgg"><path id="path0" d="M183.984 2.046 C 175.890 2.891,158.569 5.652,154.958 6.674 C 152.743 7.300,150.235 7.813,149.383 7.813 C 148.532 7.813,146.828 8.338,145.597 8.980 C 144.366 9.621,142.722 10.149,141.944 10.151 C 137.053 10.168,114.317 19.793,98.746 28.438 C 95.760 30.096,75.867 44.201,75.000 45.276 C 74.785 45.542,71.973 47.913,68.750 50.545 C 58.111 59.233,34.375 86.280,34.375 89.715 C 34.375 90.110,33.838 90.879,33.182 91.424 C 30.737 93.453,20.726 111.871,16.418 122.266 C 12.246 132.333,7.201 148.763,5.425 158.071 C 4.509 162.870,3.353 168.730,2.856 171.094 C 1.561 177.255,1.646 221.270,2.967 228.906 C 5.497 243.526,7.418 251.630,10.888 262.323 C 16.192 278.670,19.895 287.269,26.101 297.656 C 26.999 299.160,28.396 301.693,29.205 303.284 C 30.014 304.876,31.244 306.809,31.939 307.581 C 32.634 308.353,34.258 310.539,35.547 312.439 C 41.484 321.192,47.591 328.773,57.813 340.081 C 62.486 345.252,69.646 351.056,91.737 367.578 C 92.886 368.438,96.885 370.833,100.624 372.901 C 153.997 402.421,214.730 407.016,271.875 385.856 C 282.978 381.745,303.735 371.129,308.203 367.277 C 309.063 366.536,311.190 365.024,312.931 363.916 C 314.672 362.808,319.770 358.977,324.259 355.403 C 328.749 351.829,332.902 348.536,333.489 348.085 C 341.252 342.123,357.646 322.714,368.166 307.031 C 392.785 270.330,404.196 213.821,396.247 167.969 C 393.737 153.488,386.756 129.027,382.923 121.279 C 382.554 120.533,380.942 117.109,379.341 113.672 C 374.507 103.293,365.520 88.734,358.357 79.677 C 348.447 67.148,336.936 54.894,329.784 49.260 C 327.904 47.778,325.907 46.108,325.348 45.549 C 324.788 44.989,323.983 44.531,323.558 44.531 C 323.134 44.531,322.669 44.204,322.526 43.805 C 320.342 37.712,267.653 10.183,258.117 10.151 C 257.305 10.149,255.634 9.621,254.403 8.980 C 253.172 8.338,251.349 7.812,250.352 7.813 C 249.355 7.813,247.553 7.438,246.348 6.980 C 237.674 3.682,198.219 0.561,183.984 2.046 M227.344 19.868 C 240.461 22.043,258.704 26.903,264.088 29.657 C 264.747 29.994,266.413 30.518,267.790 30.820 C 269.168 31.123,270.495 31.695,270.740 32.091 C 270.985 32.488,271.839 32.813,272.637 32.813 C 273.435 32.813,274.206 33.121,274.349 33.498 C 274.492 33.874,277.180 35.472,280.322 37.048 C 283.464 38.623,289.561 42.006,293.871 44.566 C 298.181 47.125,301.861 49.219,302.048 49.219 C 302.235 49.219,304.752 51.032,307.640 53.247 C 331.950 71.898,349.591 93.038,362.299 118.750 C 364.317 122.832,366.370 126.589,366.863 127.099 C 367.604 127.866,372.222 140.680,375.962 152.344 C 376.996 155.567,377.918 160.184,378.927 167.188 C 379.329 169.980,380.026 174.000,380.477 176.120 C 381.782 182.269,382.300 207.963,381.312 217.578 C 380.196 228.439,377.589 243.416,375.942 248.438 C 375.448 249.941,374.287 253.633,373.362 256.641 C 370.914 264.599,367.163 274.219,366.508 274.219 C 366.197 274.219,364.558 277.119,362.866 280.664 C 357.654 291.588,347.436 308.059,343.203 312.360 C 342.645 312.928,342.188 313.706,342.188 314.090 C 342.188 315.629,316.913 340.050,310.058 345.136 C 301.696 351.338,289.999 358.457,280.859 362.904 C 277.422 364.577,274.421 366.211,274.191 366.536 C 273.123 368.046,250.873 375.713,242.188 377.564 C 223.011 381.650,223.194 381.633,199.609 381.611 C 181.701 381.594,175.725 381.324,171.094 380.322 C 167.871 379.625,162.773 378.625,159.766 378.099 C 140.491 374.733,102.451 356.635,88.690 344.284 C 87.821 343.504,86.055 342.197,84.766 341.380 C 76.643 336.233,51.918 308.042,45.991 297.170 C 44.614 294.644,42.733 291.348,41.812 289.844 C 40.890 288.340,38.791 284.473,37.146 281.250 C 35.501 278.027,33.906 275.215,33.602 275.000 C 32.812 274.443,29.389 265.591,26.956 257.813 C 25.813 254.160,24.516 250.117,24.074 248.828 C 23.174 246.204,22.830 244.529,20.230 230.078 C 17.552 215.193,17.536 183.971,20.199 169.531 C 22.691 156.019,23.150 153.855,24.097 151.172 C 24.552 149.883,25.528 146.719,26.266 144.141 C 27.914 138.381,32.549 126.454,33.377 125.840 C 33.711 125.593,35.175 123.105,36.631 120.313 C 45.340 103.603,52.971 91.110,56.195 88.281 C 56.440 88.066,58.047 86.136,59.766 83.991 C 68.805 72.712,91.006 53.040,101.172 47.301 C 103.320 46.088,108.594 43.111,112.891 40.686 C 117.188 38.261,121.846 35.806,123.242 35.231 C 124.639 34.656,125.781 33.877,125.781 33.499 C 125.781 33.121,126.464 32.813,127.298 32.813 C 128.132 32.813,129.015 32.488,129.260 32.091 C 129.505 31.695,130.832 31.123,132.210 30.820 C 133.587 30.518,135.253 29.994,135.912 29.657 C 143.845 25.599,164.980 20.704,184.375 18.434 C 190.617 17.703,220.250 18.692,227.344 19.868 M179.297 23.077 C 161.492 25.105,147.233 28.534,137.109 33.224 C 134.961 34.219,131.445 35.739,129.297 36.601 C 125.289 38.209,116.154 42.500,114.063 43.756 C 91.345 57.404,89.982 58.438,73.974 74.172 C 61.358 86.573,57.910 90.848,48.915 105.245 C 42.566 115.408,34.375 131.908,34.375 134.535 C 34.375 135.024,33.886 135.979,33.288 136.657 C 31.677 138.485,26.903 153.923,24.540 164.952 C 22.055 176.544,20.948 209.763,22.626 222.373 C 24.658 237.638,31.628 264.063,33.623 264.063 C 34.036 264.063,34.375 264.625,34.375 265.312 C 34.375 265.999,34.938 267.844,35.627 269.413 C 36.315 270.982,37.243 273.145,37.689 274.219 C 39.892 279.519,46.358 291.141,51.599 299.219 C 52.853 301.152,54.149 303.298,54.479 303.986 C 56.906 309.057,79.455 332.642,89.882 341.016 C 93.871 344.219,97.567 346.875,98.036 346.875 C 98.303 346.875,100.875 348.404,103.753 350.272 C 110.184 354.447,122.092 361.015,125.781 362.422 C 127.285 362.995,129.623 363.951,130.977 364.545 C 132.331 365.139,133.886 365.625,134.432 365.625 C 134.977 365.625,135.979 366.107,136.657 366.696 C 145.570 374.437,196.494 380.808,221.875 377.357 C 237.246 375.267,260.190 369.357,263.343 366.674 C 264.021 366.097,265.023 365.625,265.568 365.625 C 266.114 365.625,267.756 365.098,269.218 364.453 C 270.679 363.809,273.193 362.708,274.805 362.006 C 293.029 354.076,313.798 339.122,328.820 323.115 C 330.801 321.004,333.248 318.543,334.257 317.646 C 342.163 310.623,365.625 271.973,365.625 265.973 C 365.625 265.650,366.491 263.554,367.550 261.315 C 377.070 241.192,380.875 201.722,376.173 171.875 C 374.187 159.266,369.079 140.471,366.831 137.500 C 366.344 136.855,365.296 134.395,364.503 132.031 C 362.329 125.548,354.917 110.939,351.226 105.859 C 350.290 104.570,348.518 101.758,347.290 99.609 C 337.722 82.873,309.129 56.409,288.672 45.357 C 286.953 44.429,285.020 43.341,284.375 42.940 C 281.864 41.379,268.234 35.347,266.016 34.815 C 264.727 34.506,263.145 33.806,262.500 33.260 C 260.406 31.484,245.472 26.990,235.938 25.267 C 217.781 21.984,196.212 21.150,179.297 23.077 M219.922 32.465 C 222.500 32.695,225.312 33.196,226.172 33.580 C 227.031 33.964,230.723 34.842,234.375 35.532 C 240.559 36.701,264.356 44.284,268.750 46.487 C 269.824 47.025,271.758 47.948,273.047 48.536 C 280.978 52.158,299.777 63.995,305.078 68.704 C 309.143 72.315,327.698 90.900,331.336 95.004 C 340.615 105.472,358.594 138.623,358.594 145.265 C 358.594 146.007,358.845 146.866,359.152 147.173 C 360.130 148.151,364.384 164.523,365.265 170.703 C 365.571 172.852,366.096 174.961,366.431 175.391 C 368.485 178.025,369.328 206.761,367.714 219.141 L 366.797 226.172 346.289 226.380 L 325.781 226.588 325.781 207.825 L 325.781 189.063 332.031 189.063 L 338.281 189.063 338.281 174.256 C 338.281 153.420,338.703 153.906,320.637 153.906 C 303.331 153.906,303.775 153.361,304.083 174.230 L 304.297 188.672 310.156 189.063 L 316.016 189.453 316.225 208.008 L 316.435 226.563 303.139 226.563 L 289.844 226.563 289.844 233.184 L 289.844 239.806 302.930 240.020 L 316.016 240.234 316.227 280.859 L 316.439 321.484 314.665 322.924 C 313.689 323.716,311.588 325.562,309.995 327.026 L 307.099 329.688 267.612 329.688 C 222.513 329.688,226.012 328.964,231.409 337.173 L 234.694 342.168 262.364 342.373 L 290.034 342.578 286.619 344.484 C 267.900 354.927,244.392 363.764,231.250 365.298 C 228.887 365.574,226.602 366.072,226.172 366.405 C 224.584 367.634,211.898 368.748,200.071 368.698 C 170.686 368.573,142.393 360.670,113.381 344.484 L 109.966 342.578 137.636 342.373 L 165.306 342.168 168.591 337.173 C 173.988 328.964,177.487 329.688,132.388 329.688 L 92.901 329.687 90.005 327.026 C 88.412 325.562,86.311 323.716,85.335 322.924 L 83.561 321.484 83.773 280.859 L 83.984 240.234 97.070 240.020 L 110.156 239.806 110.156 233.184 L 110.156 226.563 96.861 226.563 L 83.565 226.563 83.775 208.008 L 83.984 189.453 89.844 189.063 L 95.703 188.672 95.916 174.018 C 96.223 152.827,96.940 153.567,76.566 154.028 C 60.703 154.387,61.719 153.055,61.719 173.492 L 61.719 188.999 68.164 189.226 L 74.609 189.453 74.609 207.813 L 74.609 226.172 53.823 226.380 L 33.036 226.588 32.143 218.735 C 30.462 203.955,31.291 177.597,33.604 172.266 C 33.977 171.406,34.662 168.770,35.127 166.406 C 37.495 154.359,43.897 135.351,48.881 125.573 C 59.102 105.517,75.250 85.067,91.320 71.828 C 93.636 69.920,96.273 67.612,97.179 66.699 C 107.208 56.599,144.954 39.421,165.625 35.549 C 169.277 34.865,172.876 33.969,173.622 33.559 C 174.368 33.148,176.478 32.786,178.310 32.755 C 180.142 32.723,183.223 32.396,185.156 32.029 C 188.616 31.371,210.755 31.649,219.922 32.465 M196.227 63.271 C 188.262 77.759,172.918 91.187,148.438 105.092 C 120.025 121.231,113.245 138.788,123.629 169.336 L 125.289 174.219 199.726 174.219 C 271.837 174.219,274.188 174.173,274.952 172.747 C 279.091 165.013,281.408 145.505,279.292 136.214 C 276.090 122.159,269.887 115.153,252.178 105.589 C 228.769 92.948,209.877 76.252,203.200 62.305 C 200.810 57.314,199.394 57.510,196.227 63.271 M78.599 125.455 C 78.338 126.134,78.125 128.043,78.125 129.696 C 78.125 132.784,77.758 133.354,73.424 137.001 C 70.993 139.046,70.878 139.404,70.495 146.127 L 70.096 153.125 79.579 153.125 L 89.063 153.125 89.063 147.302 C 89.063 140.331,88.213 138.207,84.359 135.536 C 81.700 133.693,81.396 133.105,80.917 128.867 C 80.400 124.296,79.533 123.020,78.599 125.455 M319.238 126.660 C 318.970 128.003,318.750 130.066,318.750 131.244 C 318.750 132.881,318.006 133.878,315.594 135.475 C 311.683 138.063,310.938 139.958,310.938 147.316 L 310.938 153.125 319.922 153.125 L 328.906 153.125 328.882 145.898 L 328.858 138.672 325.366 136.042 C 322.362 133.778,321.874 133.015,321.864 130.573 C 321.842 124.677,320.142 122.143,319.238 126.660 M76.397 167.773 L 76.621 175.000 72.295 175.000 L 67.969 175.000 67.981 169.336 C 67.993 163.293,68.259 162.486,70.703 161.071 C 75.001 158.583,76.153 159.939,76.397 167.773 M88.709 162.223 C 90.355 164.000,90.625 165.044,90.625 169.645 L 90.625 175.000 86.328 175.000 L 82.031 175.000 82.031 167.578 L 82.031 160.156 84.412 160.156 C 85.984 160.156,87.445 160.859,88.709 162.223 M317.969 167.578 L 317.969 175.000 313.672 175.000 L 309.375 175.000 309.375 169.496 C 309.375 163.058,311.306 160.156,315.589 160.156 L 317.969 160.156 317.969 167.578 M329.973 161.775 C 331.866 163.265,332.031 163.859,332.031 169.197 L 332.031 175.000 327.734 175.000 L 323.438 175.000 323.438 168.099 C 323.438 164.303,323.672 160.964,323.958 160.677 C 324.989 159.646,327.954 160.188,329.973 161.775 M120.955 197.074 C 117.946 199.596,115.625 204.524,115.625 208.387 L 115.625 211.719 111.719 211.719 C 108.333 211.719,107.813 211.927,107.813 213.281 C 107.813 214.821,108.333 214.844,143.359 214.844 L 178.906 214.844 178.906 211.223 C 178.906 204.276,173.912 195.313,170.041 195.313 C 166.525 195.313,160.938 204.118,160.938 209.661 C 160.938 213.834,155.767 212.566,155.284 208.274 C 153.971 196.628,146.787 192.271,141.597 199.974 C 139.792 202.652,139.551 203.379,138.681 208.789 C 137.983 213.135,132.813 213.348,132.813 209.030 C 132.813 207.552,132.506 206.153,132.132 205.922 C 131.758 205.690,131.248 204.483,130.999 203.238 C 129.869 197.585,124.370 194.211,120.955 197.074 M225.956 198.223 C 222.361 202.034,221.094 205.240,221.094 210.522 L 221.094 214.844 256.641 214.844 C 291.667 214.844,292.188 214.821,292.188 213.281 C 292.188 211.927,291.667 211.719,288.281 211.719 L 284.375 211.719 284.375 208.747 C 284.375 205.030,281.049 198.216,278.382 196.468 C 274.378 193.845,269.032 199.412,268.083 207.192 C 267.587 211.253,267.528 211.332,264.812 211.561 L 262.047 211.794 261.093 207.173 C 260.058 202.164,256.561 196.546,253.965 195.722 C 250.393 194.588,244.531 202.682,244.531 208.747 C 244.531 211.622,244.443 211.719,241.797 211.719 C 239.200 211.719,239.063 211.583,239.063 209.021 C 239.063 204.485,236.192 199.355,232.169 196.702 C 229.335 194.833,229.098 194.891,225.956 198.223 M196.094 210.293 C 193.536 211.779,189.225 215.104,185.497 218.467 C 182.210 221.434,177.356 228.714,175.044 234.148 C 170.443 244.958,170.337 246.142,170.324 286.523 L 170.313 323.438 173.768 323.438 L 177.224 323.438 177.479 295.117 C 177.764 263.492,177.589 264.570,183.819 255.967 C 187.216 251.276,197.013 243.750,199.724 243.750 C 203.493 243.750,212.788 251.028,217.190 257.426 C 221.796 264.119,221.875 264.764,221.875 295.411 L 221.875 323.438 225.828 323.438 L 229.780 323.438 229.505 284.570 L 229.230 245.703 226.740 238.768 C 221.947 225.416,214.593 216.315,203.687 210.239 C 200.128 208.257,199.593 208.260,196.094 210.293 M141.797 224.894 C 137.812 227.360,131.045 234.876,128.181 240.018 L 125.449 244.922 125.029 279.756 C 124.798 298.914,124.730 316.580,124.877 319.014 L 125.145 323.438 128.979 323.438 L 132.813 323.438 132.813 296.530 C 132.813 280.930,133.116 269.436,133.534 269.178 C 133.930 268.933,134.500 267.594,134.800 266.202 C 135.605 262.471,138.725 257.518,142.315 254.275 L 145.478 251.417 148.215 254.029 C 156.361 261.804,157.031 265.103,157.031 297.430 L 157.031 323.438 161.370 323.438 L 165.709 323.438 165.426 286.133 C 165.094 242.396,164.917 241.408,155.574 231.025 C 149.257 224.005,145.753 222.445,141.797 224.894 M251.489 224.810 C 244.509 229.501,239.142 236.614,236.384 244.829 L 234.375 250.814 234.375 287.126 L 234.375 323.438 238.672 323.438 L 242.969 323.438 242.969 297.045 C 242.969 264.778,244.138 259.315,252.341 253.250 L 254.731 251.483 256.858 253.138 C 260.089 255.653,264.631 262.833,265.228 266.371 C 265.521 268.105,266.082 269.721,266.474 269.964 C 266.882 270.216,267.188 281.787,267.188 296.962 L 267.188 323.519 271.289 323.283 L 275.391 323.047 275.621 299.609 C 276.118 249.135,274.952 241.666,264.917 231.028 C 257.801 223.485,255.231 222.295,251.489 224.810 M74.788 276.172 L 74.966 312.109 71.094 307.813 L 67.223 303.516 67.205 293.156 C 67.174 274.875,59.699 266.275,52.659 276.422 L 51.020 278.783 48.493 273.705 C 45.049 266.785,36.719 243.005,36.719 240.094 C 36.719 239.941,45.244 239.910,55.664 240.025 L 74.609 240.234 74.788 276.172 M362.916 241.602 C 361.474 246.982,359.878 252.119,359.278 253.310 C 358.902 254.056,358.594 255.083,358.594 255.592 C 358.594 259.399,349.124 279.348,348.172 277.547 C 347.287 275.872,342.850 271.879,341.871 271.877 C 336.392 271.863,332.818 280.269,332.791 293.229 L 332.770 303.516 329.283 307.422 L 325.796 311.328 325.788 275.586 L 325.781 239.844 344.584 239.844 L 363.387 239.844 362.916 241.602 M54.441 247.079 C 51.441 249.908,50.011 253.935,50.004 259.570 L 50.000 263.281 58.594 263.281 L 67.188 263.281 67.188 259.366 C 67.188 254.649,64.818 249.212,61.570 246.479 C 58.559 243.945,57.686 244.019,54.441 247.079 M97.102 246.066 C 93.489 248.269,91.406 252.839,91.406 258.563 L 91.406 263.281 100.391 263.281 L 109.375 263.281 109.358 259.180 C 109.318 249.563,102.802 242.591,97.102 246.066 M296.853 245.800 C 293.051 248.161,291.406 251.786,291.406 257.802 L 291.406 263.281 300.000 263.281 L 308.594 263.281 308.594 258.840 C 308.594 249.573,302.204 242.476,296.853 245.800 M337.545 247.515 C 334.430 250.789,332.813 255.075,332.813 260.052 L 332.813 263.281 341.406 263.281 L 350.000 263.281 349.996 259.570 C 349.982 247.904,343.315 241.449,337.545 247.515 M297.266 272.825 C 291.406 276.208,290.857 280.528,291.354 319.336 L 291.406 323.438 300.000 323.438 L 308.594 323.438 308.577 302.539 C 308.557 279.011,308.088 276.574,302.975 273.457 C 300.011 271.649,299.415 271.583,297.266 272.825 M195.143 286.336 C 189.059 290.800,188.710 291.967,188.415 308.810 L 188.159 323.480 199.744 323.263 L 211.328 323.047 211.305 308.594 C 211.286 296.336,211.075 293.753,209.912 291.590 C 208.444 288.858,201.935 283.632,200.000 283.632 C 199.355 283.632,197.170 284.849,195.143 286.336 " stroke="none" fill="#000000" fill-rule="evenodd"></path></g></svg>